<svg width="98" height="22" viewBox="0 0 98 22" fill="none" xmlns="http://www.w3.org/2000/svg">
<path d="M7.784 12V18.084C7.784 18.444 7.976 18.648 8.36 18.696L11.708 19.128V21H0.152V19.128L2.24 18.732C2.624 18.66 2.816 18.432 2.816 18.048V3.504C2.816 3.072 2.612 2.82 2.204 2.748L0.152 2.352V0.372H15.884C16.004 1.284 16.064 2.208 16.064 3.144C16.088 4.056 16.064 4.992 15.992 5.952H13.652L12.932 3.54C12.788 3.084 12.536 2.796 12.176 2.676C11.936 2.604 11.612 2.544 11.204 2.496C10.82 2.424 10.412 2.388 9.98 2.388H7.784V9.66L13.4 9.48V12.144L7.784 12ZM32.8124 15.096C32.8124 16.08 32.5604 17.052 32.0564 18.012C31.5524 18.972 30.7244 19.776 29.5724 20.424C28.4444 21.048 26.9324 21.36 25.0364 21.36C23.6684 21.36 22.3844 21.204 21.1844 20.892C20.0084 20.58 18.9884 20.22 18.1244 19.812C18.0764 18.852 18.0884 17.844 18.1604 16.788C18.2324 15.732 18.3404 14.82 18.4844 14.052H21.2924L21.7964 17.436C21.8444 17.652 21.9044 17.832 21.9764 17.976C22.0724 18.12 22.2044 18.276 22.3724 18.444C22.6364 18.684 23.0084 18.912 23.4884 19.128C23.9924 19.344 24.5444 19.452 25.1444 19.452C26.0084 19.452 26.6804 19.212 27.1604 18.732C27.6404 18.252 27.8804 17.616 27.8804 16.824C27.8804 16.08 27.6764 15.444 27.2684 14.916C26.8844 14.388 26.3684 13.92 25.7204 13.512C25.0724 13.08 24.3404 12.66 23.5244 12.252C22.6124 11.772 21.7484 11.28 20.9324 10.776C20.1404 10.248 19.4924 9.612 18.9884 8.868C18.5084 8.124 18.2684 7.176 18.2684 6.024C18.2684 4.32 18.8804 2.892 20.1044 1.74C21.3524 0.588 23.2124 0.0119998 25.6844 0.0119998C26.7404 0.0119998 27.7964 0.107999 28.8524 0.299998C29.9084 0.491999 30.8324 0.755999 31.6244 1.092C31.6964 1.956 31.6964 2.868 31.6244 3.828C31.5764 4.764 31.4804 5.652 31.3364 6.492H28.6004L28.0604 3.54C28.0124 3.276 27.9404 3.06 27.8444 2.892C27.7724 2.7 27.6524 2.556 27.4844 2.46C27.2444 2.292 26.9324 2.16 26.5484 2.064C26.1884 1.944 25.8164 1.884 25.4324 1.884C24.6644 1.884 24.0524 2.112 23.5964 2.568C23.1644 3 22.9484 3.576 22.9484 4.296C22.9484 4.968 23.1164 5.532 23.4524 5.988C23.8124 6.444 24.3164 6.864 24.9644 7.248C25.6364 7.608 26.4164 8.028 27.3044 8.508C28.3124 9.012 29.2244 9.576 30.0404 10.2C30.8804 10.8 31.5524 11.496 32.0564 12.288C32.5604 13.08 32.8124 14.016 32.8124 15.096ZM57.5605 2.352L55.4725 2.748C55.0885 2.82 54.8965 3.072 54.8965 3.504V18.012C54.8965 18.42 55.1005 18.66 55.5085 18.732L57.5605 19.128V21H47.8765V19.128L49.3165 18.732C49.7245 18.612 49.9285 18.372 49.9285 18.012V11.748H42.7645V18.012C42.7645 18.42 42.9565 18.66 43.3405 18.732L44.9965 19.128V21H35.1325V19.128L37.1845 18.732C37.5925 18.66 37.7965 18.42 37.7965 18.012V3.504C37.7965 3.072 37.5925 2.82 37.1845 2.748L35.1325 2.352V0.372H44.9965V2.352L43.3405 2.748C42.9565 2.844 42.7645 3.096 42.7645 3.504V9.336H49.9285V3.504C49.9285 3.12 49.7365 2.868 49.3525 2.748L47.8405 2.352V0.372H57.5605V2.352ZM68.5301 21.36C65.4581 21.36 63.2021 20.448 61.7621 18.624C60.3461 16.776 59.6381 14.256 59.6381 11.064C59.6381 8.736 59.9981 6.756 60.7181 5.124C61.4621 3.468 62.5421 2.208 63.9581 1.344C65.3741 0.456 67.1261 0.0119998 69.2141 0.0119998C72.2861 0.0119998 74.5301 0.935999 75.9461 2.784C77.3861 4.632 78.1061 7.14 78.1061 10.308C78.1061 12.636 77.7461 14.628 77.0261 16.284C76.3061 17.916 75.2261 19.176 73.7861 20.064C72.3701 20.928 70.6181 21.36 68.5301 21.36ZM68.9261 2.064C67.6541 2.064 66.6941 2.748 66.0461 4.116C65.3981 5.46 65.0741 7.692 65.0741 10.812C65.0741 13.86 65.3861 16.044 66.0101 17.364C66.6341 18.684 67.5701 19.344 68.8181 19.344C70.0901 19.344 71.0501 18.66 71.6981 17.292C72.3461 15.9 72.6701 13.632 72.6701 10.488C72.6701 7.464 72.3581 5.304 71.7341 4.008C71.1341 2.712 70.1981 2.064 68.9261 2.064ZM87.8348 18.084C87.8348 18.444 88.0268 18.648 88.4108 18.696L91.6508 19.128V21H80.2028V19.128L82.2908 18.732C82.6748 18.66 82.8668 18.444 82.8668 18.084V3.396C82.8668 3.06 82.6868 2.856 82.3268 2.784L80.2028 2.352V0.372H85.4228C85.8068 0.372 86.2148 0.36 86.6468 0.336C87.1028 0.311999 87.5948 0.287998 88.1228 0.263999C88.6508 0.239999 89.2508 0.227999 89.9228 0.227999C91.9148 0.227999 93.4628 0.467999 94.5668 0.947999C95.6948 1.404 96.4868 2.076 96.9428 2.964C97.3988 3.852 97.6268 4.944 97.6268 6.24C97.6268 7.776 97.3148 9.108 96.6908 10.236C96.0908 11.34 95.1908 12.192 93.9908 12.792C92.8148 13.368 91.3388 13.656 89.5628 13.656C89.1548 13.656 88.7468 13.644 88.3388 13.62C87.9548 13.596 87.5828 13.572 87.2228 13.548L87.1868 11.568C87.6188 11.616 87.9788 11.664 88.2668 11.712C88.5788 11.736 88.9628 11.748 89.4188 11.748C90.0428 11.748 90.5828 11.592 91.0388 11.28C91.5188 10.944 91.8908 10.392 92.1548 9.624C92.4428 8.832 92.5868 7.752 92.5868 6.384C92.5868 4.896 92.3108 3.816 91.7588 3.144C91.2308 2.448 90.4388 2.1 89.3828 2.1C88.9268 2.1 88.6028 2.124 88.4108 2.172C88.2188 2.196 88.0268 2.22 87.8348 2.244V18.084Z" fill="black"/>
</svg>
